<mxfile modified="2021-02-12T08:49:12.186Z" host="app.diagrams.net" agent="5.0 (Windows NT 10.0; Win64; x64) AppleWebKit/537.36 (KHTML, like Gecko) Chrome/88.0.4324.146 Safari/537.36" etag="sRUozzpJkWQp0zo1O2cm" version="14.3.1" type="github">
  <diagram id="Ht1M8jgEwFfnCIfOTk4-" name="Page-1">
    <mxGraphModel dx="1244" dy="1658" grid="1" gridSize="10" guides="1" tooltips="1" connect="1" arrows="1" fold="1" page="1" pageScale="1" pageWidth="1169" pageHeight="827" math="0" shadow="0">
      <root>
        <mxCell id="0" />
        <mxCell id="1" parent="0" />
        <mxCell id="Uwqi9pmHMFPru8diG8-v-29" value="" style="group;rounded=1;" vertex="1" connectable="0" parent="1">
          <mxGeometry x="403" y="370" width="364" height="373" as="geometry" />
        </mxCell>
        <mxCell id="Uwqi9pmHMFPru8diG8-v-1" value="" style="points=[[0,0,0],[0.25,0,0],[0.5,0,0],[0.75,0,0],[1,0,0],[0,1,0],[0.25,1,0],[0.5,1,0],[0.75,1,0],[1,1,0],[0,0.25,0],[0,0.5,0],[0,0.75,0],[1,0.25,0],[1,0.5,0],[1,0.75,0]];outlineConnect=0;gradientDirection=north;dashed=0;verticalLabelPosition=bottom;verticalAlign=top;align=center;html=1;fontSize=12;fontStyle=0;aspect=fixed;shape=mxgraph.aws4.resourceIcon;resIcon=mxgraph.aws4.ec2;rounded=1;" vertex="1" parent="Uwqi9pmHMFPru8diG8-v-29">
          <mxGeometry y="9" width="364" height="364" as="geometry" />
        </mxCell>
        <mxCell id="Uwqi9pmHMFPru8diG8-v-2" value="" style="html=1;dashed=0;whitespace=wrap;points=[[0.005,0.63,0],[0.1,0.2,0],[0.9,0.2,0],[0.5,0,0],[0.995,0.63,0],[0.72,0.99,0],[0.5,1,0],[0.28,0.99,0]];shape=mxgraph.kubernetes.icon;prIcon=kubelet;rounded=1;" vertex="1" parent="Uwqi9pmHMFPru8diG8-v-29">
          <mxGeometry x="10" y="9" width="70" height="76" as="geometry" />
        </mxCell>
        <mxCell id="Uwqi9pmHMFPru8diG8-v-5" value="" style="html=1;dashed=0;whitespace=wrap;points=[[0.005,0.63,0],[0.1,0.2,0],[0.9,0.2,0],[0.5,0,0],[0.995,0.63,0],[0.72,0.99,0],[0.5,1,0],[0.28,0.99,0]];shape=mxgraph.kubernetes.icon;prIcon=sched;rounded=1;" vertex="1" parent="Uwqi9pmHMFPru8diG8-v-29">
          <mxGeometry x="90" width="70" height="94" as="geometry" />
        </mxCell>
        <mxCell id="Uwqi9pmHMFPru8diG8-v-27" value="" style="group;rounded=1;" vertex="1" connectable="0" parent="Uwqi9pmHMFPru8diG8-v-29">
          <mxGeometry x="12" y="85" width="340" height="280" as="geometry" />
        </mxCell>
        <mxCell id="Uwqi9pmHMFPru8diG8-v-3" value="K8s-app01 (Control-Plane)" style="whiteSpace=wrap;html=1;rounded=1;" vertex="1" parent="Uwqi9pmHMFPru8diG8-v-27">
          <mxGeometry x="112" y="80" width="120" height="60" as="geometry" />
        </mxCell>
        <mxCell id="Uwqi9pmHMFPru8diG8-v-4" value="" style="html=1;dashed=0;whitespace=wrap;points=[[0.005,0.63,0],[0.1,0.2,0],[0.9,0.2,0],[0.5,0,0],[0.995,0.63,0],[0.72,0.99,0],[0.5,1,0],[0.28,0.99,0]];shape=mxgraph.kubernetes.icon;prIcon=etcd;rounded=1;" vertex="1" parent="Uwqi9pmHMFPru8diG8-v-27">
          <mxGeometry width="75" height="80" as="geometry" />
        </mxCell>
        <mxCell id="Uwqi9pmHMFPru8diG8-v-7" value="" style="aspect=fixed;html=1;points=[];align=center;image;fontSize=12;image=img/lib/mscae/Docker.svg;rounded=1;" vertex="1" parent="Uwqi9pmHMFPru8diG8-v-27">
          <mxGeometry x="200" y="210" width="85.37" height="70" as="geometry" />
        </mxCell>
        <mxCell id="Uwqi9pmHMFPru8diG8-v-8" value="" style="html=1;dashed=0;whitespace=wrap;points=[[0.005,0.63,0],[0.1,0.2,0],[0.9,0.2,0],[0.5,0,0],[0.995,0.63,0],[0.72,0.99,0],[0.5,1,0],[0.28,0.99,0]];shape=mxgraph.kubernetes.icon;prIcon=api;rounded=1;" vertex="1" parent="Uwqi9pmHMFPru8diG8-v-27">
          <mxGeometry x="290" y="140" width="50" height="48" as="geometry" />
        </mxCell>
        <mxCell id="Uwqi9pmHMFPru8diG8-v-9" value="Kubeadm" style="text;html=1;strokeColor=none;fillColor=none;align=center;verticalAlign=middle;whiteSpace=wrap;rounded=1;" vertex="1" parent="Uwqi9pmHMFPru8diG8-v-27">
          <mxGeometry x="295" y="200" width="40" height="20" as="geometry" />
        </mxCell>
        <mxCell id="Uwqi9pmHMFPru8diG8-v-44" value="" style="group;rounded=1;" vertex="1" connectable="0" parent="1">
          <mxGeometry x="740" y="-180" width="371" height="371" as="geometry" />
        </mxCell>
        <mxCell id="Uwqi9pmHMFPru8diG8-v-40" value="" style="points=[[0,0,0],[0.25,0,0],[0.5,0,0],[0.75,0,0],[1,0,0],[0,1,0],[0.25,1,0],[0.5,1,0],[0.75,1,0],[1,1,0],[0,0.25,0],[0,0.5,0],[0,0.75,0],[1,0.25,0],[1,0.5,0],[1,0.75,0]];outlineConnect=0;gradientDirection=north;dashed=0;verticalLabelPosition=bottom;verticalAlign=top;align=center;html=1;fontSize=12;fontStyle=0;aspect=fixed;shape=mxgraph.aws4.resourceIcon;resIcon=mxgraph.aws4.ec2;rounded=1;" vertex="1" parent="Uwqi9pmHMFPru8diG8-v-44">
          <mxGeometry width="371" height="371" as="geometry" />
        </mxCell>
        <mxCell id="Uwqi9pmHMFPru8diG8-v-41" value="" style="aspect=fixed;html=1;points=[];align=center;image;fontSize=12;image=img/lib/mscae/Docker.svg;rounded=1;" vertex="1" parent="Uwqi9pmHMFPru8diG8-v-44">
          <mxGeometry x="270" y="261" width="85.37" height="70" as="geometry" />
        </mxCell>
        <mxCell id="Uwqi9pmHMFPru8diG8-v-42" value="" style="html=1;dashed=0;whitespace=wrap;points=[[0.005,0.63,0],[0.1,0.2,0],[0.9,0.2,0],[0.5,0,0],[0.995,0.63,0],[0.72,0.99,0],[0.5,1,0],[0.28,0.99,0]];shape=mxgraph.kubernetes.icon;prIcon=kubelet;rounded=1;" vertex="1" parent="Uwqi9pmHMFPru8diG8-v-44">
          <mxGeometry x="10" width="90" height="111" as="geometry" />
        </mxCell>
        <mxCell id="Uwqi9pmHMFPru8diG8-v-43" value="K8s-app03 (Worker-2)" style="whiteSpace=wrap;html=1;rounded=1;" vertex="1" parent="Uwqi9pmHMFPru8diG8-v-44">
          <mxGeometry x="134.5" y="155.5" width="102" height="60" as="geometry" />
        </mxCell>
        <mxCell id="Uwqi9pmHMFPru8diG8-v-45" value="" style="group;rounded=1;" vertex="1" connectable="0" parent="1">
          <mxGeometry x="60" y="-180" width="371" height="371" as="geometry" />
        </mxCell>
        <mxCell id="Uwqi9pmHMFPru8diG8-v-19" value="" style="points=[[0,0,0],[0.25,0,0],[0.5,0,0],[0.75,0,0],[1,0,0],[0,1,0],[0.25,1,0],[0.5,1,0],[0.75,1,0],[1,1,0],[0,0.25,0],[0,0.5,0],[0,0.75,0],[1,0.25,0],[1,0.5,0],[1,0.75,0]];outlineConnect=0;gradientDirection=north;dashed=0;verticalLabelPosition=bottom;verticalAlign=top;align=center;html=1;fontSize=12;fontStyle=0;aspect=fixed;shape=mxgraph.aws4.resourceIcon;resIcon=mxgraph.aws4.ec2;rounded=1;" vertex="1" parent="Uwqi9pmHMFPru8diG8-v-45">
          <mxGeometry width="371" height="371" as="geometry" />
        </mxCell>
        <mxCell id="Uwqi9pmHMFPru8diG8-v-20" value="" style="html=1;dashed=0;whitespace=wrap;points=[[0.005,0.63,0],[0.1,0.2,0],[0.9,0.2,0],[0.5,0,0],[0.995,0.63,0],[0.72,0.99,0],[0.5,1,0],[0.28,0.99,0]];shape=mxgraph.kubernetes.icon;prIcon=kubelet;rounded=1;" vertex="1" parent="Uwqi9pmHMFPru8diG8-v-45">
          <mxGeometry x="10" width="90" height="111" as="geometry" />
        </mxCell>
        <mxCell id="Uwqi9pmHMFPru8diG8-v-21" value="K8s-app02 (Worker-1)" style="whiteSpace=wrap;html=1;rounded=1;" vertex="1" parent="Uwqi9pmHMFPru8diG8-v-45">
          <mxGeometry x="140" y="152" width="102" height="60" as="geometry" />
        </mxCell>
        <mxCell id="Uwqi9pmHMFPru8diG8-v-24" value="" style="aspect=fixed;html=1;points=[];align=center;image;fontSize=12;image=img/lib/mscae/Docker.svg;rounded=1;" vertex="1" parent="Uwqi9pmHMFPru8diG8-v-45">
          <mxGeometry x="270" y="261" width="85.37" height="70" as="geometry" />
        </mxCell>
        <mxCell id="Uwqi9pmHMFPru8diG8-v-46" style="edgeStyle=orthogonalEdgeStyle;orthogonalLoop=1;jettySize=auto;html=1;" edge="1" parent="1" source="Uwqi9pmHMFPru8diG8-v-40">
          <mxGeometry relative="1" as="geometry">
            <mxPoint x="770" y="530" as="targetPoint" />
            <Array as="points">
              <mxPoint x="926" y="530" />
              <mxPoint x="930" y="570" />
              <mxPoint x="926" y="530" />
            </Array>
          </mxGeometry>
        </mxCell>
        <mxCell id="Uwqi9pmHMFPru8diG8-v-47" style="edgeStyle=orthogonalEdgeStyle;orthogonalLoop=1;jettySize=auto;html=1;" edge="1" parent="1" source="Uwqi9pmHMFPru8diG8-v-19">
          <mxGeometry relative="1" as="geometry">
            <mxPoint x="403" y="530" as="targetPoint" />
            <Array as="points">
              <mxPoint x="246" y="530" />
              <mxPoint x="403" y="530" />
            </Array>
          </mxGeometry>
        </mxCell>
        <mxCell id="Uwqi9pmHMFPru8diG8-v-48" value="" style="shape=flexArrow;endArrow=classic;startArrow=classic;html=1;entryX=0;entryY=0.5;entryDx=0;entryDy=0;entryPerimeter=0;exitX=1;exitY=0.5;exitDx=0;exitDy=0;exitPerimeter=0;" edge="1" parent="1" source="Uwqi9pmHMFPru8diG8-v-19" target="Uwqi9pmHMFPru8diG8-v-40">
          <mxGeometry width="50" height="50" relative="1" as="geometry">
            <mxPoint x="480" y="10" as="sourcePoint" />
            <mxPoint x="690" y="10" as="targetPoint" />
            <Array as="points">
              <mxPoint x="580" y="6" />
            </Array>
          </mxGeometry>
        </mxCell>
        <mxCell id="Uwqi9pmHMFPru8diG8-v-49" value="&lt;b&gt;&lt;font style=&quot;font-size: 16px&quot;&gt;Plugin Network ( Flannel )&lt;/font&gt;&lt;/b&gt;" style="whiteSpace=wrap;html=1;rounded=1;" vertex="1" parent="1">
          <mxGeometry x="530" y="20" width="140" height="80" as="geometry" />
        </mxCell>
      </root>
    </mxGraphModel>
  </diagram>
</mxfile>
